#N canvas 491 76 913 627 16;
#X obj 64 152 gemwin;
#X msg 65 72 create \, 1;
#X msg 86 106 destroy;
#X obj 65 232 gemhead;
#X obj 65 318 triangle;
#X floatatom 206 295 5 0 0 0 - - - 0;
#X msg 181 214 draw line;
#X msg 181 247 draw fill;
#X connect 1 0 0 0;
#X connect 2 0 0 0;
#X connect 3 0 4 0;
#X connect 5 0 4 1;
#X connect 6 0 4 0;
#X connect 7 0 4 0;
