#N canvas 505 25 923 826 16;
#X obj 64 130 gemwin;
#X msg 65 50 create \, 1;
#X msg 86 84 destroy;
#X obj 278 49 gemhead;
#X obj 278 389 triangle;
#X floatatom 420 366 5 0 0 0 - - - 0;
#X msg 373 301 draw line;
#X msg 373 332 draw fill;
#X floatatom 297 160 3 0 1 0 - - - 0;
#X obj 278 292 alpha;
#X obj 278 254 colorRGB;
#X floatatom 316 191 3 0 1 0 - - - 0;
#X floatatom 335 221 3 0 1 0 - - - 0;
#X obj 278 112 translateXYZ;
#X floatatom 317 81 2 -3 3 0 - - - 0;
#X floatatom 355 81 2 -3 3 0 - - - 0;
#X obj 549 50 gemhead;
#X obj 549 390 triangle;
#X floatatom 691 367 5 0 0 0 - - - 0;
#X msg 644 302 draw line;
#X msg 644 333 draw fill;
#X floatatom 568 161 3 0 1 0 - - - 0;
#X obj 549 293 alpha;
#X obj 549 255 colorRGB;
#X floatatom 587 192 3 0 1 0 - - - 0;
#X floatatom 606 222 3 0 1 0 - - - 0;
#X obj 549 113 translateXYZ;
#X floatatom 588 82 2 -3 3 0 - - - 0;
#X floatatom 626 82 2 -3 3 0 - - - 0;
#X obj 280 438 gemhead;
#X floatatom 422 755 5 0 0 0 - - - 0;
#X msg 375 690 draw line;
#X msg 375 721 draw fill;
#X floatatom 299 549 3 0 1 0 - - - 0;
#X obj 280 681 alpha;
#X obj 280 643 colorRGB;
#X floatatom 318 580 3 0 1 0 - - - 0;
#X floatatom 337 610 3 0 1 0 - - - 0;
#X obj 280 501 translateXYZ;
#X floatatom 319 470 2 -3 3 0 - - - 0;
#X floatatom 357 470 2 -3 3 0 - - - 0;
#X obj 280 778 rectangle;
#X obj 571 441 gemhead;
#X floatatom 713 758 5 0 0 0 - - - 0;
#X msg 666 693 draw line;
#X msg 666 724 draw fill;
#X floatatom 590 552 3 0 1 0 - - - 0;
#X obj 571 684 alpha;
#X obj 571 646 colorRGB;
#X floatatom 609 583 3 0 1 0 - - - 0;
#X floatatom 628 613 3 0 1 0 - - - 0;
#X obj 571 504 translateXYZ;
#X floatatom 610 473 2 -3 3 0 - - - 0;
#X floatatom 648 473 2 -3 3 0 - - - 0;
#X obj 571 781 circle;
#X connect 1 0 0 0;
#X connect 2 0 0 0;
#X connect 3 0 13 0;
#X connect 5 0 4 1;
#X connect 6 0 4 0;
#X connect 7 0 4 0;
#X connect 8 0 10 1;
#X connect 9 0 4 0;
#X connect 10 0 9 0;
#X connect 11 0 10 2;
#X connect 12 0 10 3;
#X connect 13 0 10 0;
#X connect 14 0 13 1;
#X connect 15 0 13 2;
#X connect 16 0 26 0;
#X connect 18 0 17 1;
#X connect 19 0 17 0;
#X connect 20 0 17 0;
#X connect 21 0 23 1;
#X connect 22 0 17 0;
#X connect 23 0 22 0;
#X connect 24 0 23 2;
#X connect 25 0 23 3;
#X connect 26 0 23 0;
#X connect 27 0 26 1;
#X connect 28 0 26 2;
#X connect 29 0 38 0;
#X connect 30 0 41 1;
#X connect 31 0 41 0;
#X connect 32 0 41 0;
#X connect 33 0 35 1;
#X connect 34 0 41 0;
#X connect 35 0 34 0;
#X connect 36 0 35 2;
#X connect 37 0 35 3;
#X connect 38 0 35 0;
#X connect 39 0 38 1;
#X connect 40 0 38 2;
#X connect 42 0 51 0;
#X connect 43 0 54 1;
#X connect 44 0 54 0;
#X connect 45 0 54 0;
#X connect 46 0 48 1;
#X connect 47 0 54 0;
#X connect 48 0 47 0;
#X connect 49 0 48 2;
#X connect 50 0 48 3;
#X connect 51 0 48 0;
#X connect 52 0 51 1;
#X connect 53 0 51 2;
