#N canvas 655 252 725 357 16;
#X obj 58 61 notein;
#X text 142 127 velocity;
#X text 162 96 channel;
#X text 130 60 (omni);
#X text 115 157 note;
#X floatatom 58 157 4 0 127 0 - - - 0;
#X floatatom 86 126 4 0 127 0 - - - 0;
#X floatatom 115 96 0 1 64 0 - - - 0;
#X obj 308 62 ctlin;
#X text 362 165 value;
#X text 373 63 (all controllers \, omni);
#X text 385 131 controller #;
#X text 405 100 channel/port;
#X floatatom 308 164 4 0 127 0 - - - 0;
#X floatatom 331 131 4 0 127 0 - - - 0;
#X floatatom 355 99 0 1 64 0 - - - 0;
#X connect 0 0 5 0;
#X connect 0 1 6 0;
#X connect 0 2 7 0;
#X connect 8 0 13 0;
#X connect 8 1 14 0;
#X connect 8 2 15 0;
